<svg width="48" height="48" viewBox="0 0 48 48" fill="none" xmlns="http://www.w3.org/2000/svg">
<path fill-rule="evenodd" clip-rule="evenodd" d="M9.79324 12.7693C11.4805 9.53022 15.8755 4.69336 23.5806 4.69336C31.2857 4.69336 35.6808 9.53022 37.368 12.7693C37.8488 13.6922 37.9838 14.6738 37.9838 15.5394V32.8217C37.9838 33.2195 38.1419 33.601 38.4232 33.8823L41.5148 36.974C43.0897 38.5489 41.9743 41.2417 39.7471 41.2417H7.41419C5.18693 41.2417 4.07151 38.5489 5.64642 36.974L8.73806 33.8823C9.01936 33.601 9.1774 33.2195 9.1774 32.8217V15.5394C9.1774 14.6738 9.31246 13.6922 9.79324 12.7693ZM23.5806 7.69336C17.3083 7.69336 13.7878 11.5944 12.4539 14.1552C12.2699 14.5084 12.1774 14.9661 12.1774 15.5394V32.8217C12.1774 34.0152 11.7033 35.1598 10.8594 36.0037L8.6213 38.2417H38.5399L36.3019 36.0037C35.458 35.1598 34.9838 34.0152 34.9838 32.8217V15.5394C34.9838 14.9661 34.8913 14.5084 34.7073 14.1552C33.3734 11.5944 29.853 7.69336 23.5806 7.69336Z" fill="#1B344B"/>
<circle cx="23.5802" cy="3.09677" r="3.09677" fill="#1B344B"/>
<path d="M27.7415 43.3545H19.4189C18.8667 43.3545 18.421 43.8088 18.5795 44.3378C19.0589 45.9379 20.6324 47.9997 23.5804 47.9997C26.5283 47.9997 28.1017 45.9379 28.581 44.3378C28.7394 43.8088 28.2938 43.3545 27.7415 43.3545Z" fill="#1B344B"/>
</svg>
